<svg version="1.1" id="Layer_1" xmlns="http://www.w3.org/2000/svg" xmlns:xlink="http://www.w3.org/1999/xlink" x="0px" y="0px"
	 width="100%" viewBox="0 0 200 170" enable-background="new 0 0 200 170" xml:space="preserve">
<path fill="#000000" opacity="1.000000" stroke="none" 
	d="
M201.000000,25.000000 
	C201.000000,73.615685 201.000000,122.231377 201.000000,170.923523 
	C134.454224,170.923523 67.908325,170.923523 1.000000,170.923523 
	C1.000000,147.313675 1.000000,123.625496 1.407400,99.468452 
	C7.668091,97.081512 13.597528,95.366966 19.361580,93.210381 
	C45.241051,83.527718 71.076424,73.727097 96.921982,63.953896 
	C116.534744,56.537556 136.119186,49.045830 155.753235,41.686413 
	C170.805542,36.044365 185.915619,30.556458 201.000000,25.000000 
z"/>
<path fill="#000000" opacity="1.000000" stroke="none" 
	d="
M1.000000,94.000000 
	C1.000000,63.043659 1.000000,32.087318 1.000000,1.065488 
	C67.666641,1.065488 134.333313,1.065488 201.000000,1.065488 
	C201.000000,7.078185 201.000000,13.069716 200.603561,19.531998 
	C197.560852,20.780907 194.849915,21.388466 192.278076,22.363026 
	C158.381668,35.207588 124.505936,48.106689 90.622749,60.986134 
	C69.048019,69.186966 47.499630,77.458504 25.877300,85.531944 
	C17.674519,88.594734 9.297565,91.191063 1.000000,94.000000 
z"/>
<path fill="#0000FF" opacity="1.000000" stroke="none" 
	d="
M1.000000,94.416664 
	C9.297565,91.191063 17.674519,88.594734 25.877300,85.531944 
	C47.499630,77.458504 69.048019,69.186966 90.622749,60.986134 
	C124.505936,48.106689 158.381668,35.207588 192.278076,22.363026 
	C194.849915,21.388466 197.560852,20.780907 200.603561,20.001373 
	C201.000000,21.388889 201.000000,22.777779 201.000000,24.583334 
	C185.915619,30.556458 170.805542,36.044365 155.753235,41.686413 
	C136.119186,49.045830 116.534744,56.537556 96.921982,63.953896 
	C71.076424,73.727097 45.241051,83.527718 19.361580,93.210381 
	C13.597528,95.366966 7.668091,97.081512 1.407400,98.999794 
	C1.000000,97.611107 1.000000,96.222221 1.000000,94.416664 
z"/>
</svg>